<svg width="232" height="46" viewBox="0 0 232 46" fill="none" xmlns="http://www.w3.org/2000/svg">
<path d="M4 16C4 12.2725 4 10.4087 4.60896 8.93853C5.42092 6.97831 6.97831 5.42092 8.93853 4.60896C10.4087 4 12.2725 4 16 4C19.7275 4 21.5913 4 23.0615 4.60896C25.0217 5.42092 26.5791 6.97831 27.391 8.93853C28 10.4087 28 12.2725 28 16C28 19.7275 28 21.5913 27.391 23.0615C26.5791 25.0217 25.0217 26.5791 23.0615 27.391C21.5913 28 19.7275 28 16 28C12.2725 28 10.4087 28 8.93853 27.391C6.97831 26.5791 5.42092 25.0217 4.60896 23.0615C4 21.5913 4 19.7275 4 16Z" fill="#E5ECF6"/>
<path d="M22.4325 21.25C21.4806 19.6044 20.0137 18.4244 18.3019 17.865C19.1486 17.3609 19.8065 16.5928 20.1745 15.6786C20.5425 14.7644 20.6002 13.7547 20.3388 12.8046C20.0774 11.8544 19.5113 11.0164 18.7275 10.4191C17.9437 9.82178 16.9854 9.49829 16 9.49829C15.0145 9.49829 14.0563 9.82178 13.2725 10.4191C12.4887 11.0164 11.9226 11.8544 11.6612 12.8046C11.3998 13.7547 11.4575 14.7644 11.8255 15.6786C12.1935 16.5928 12.8513 17.3609 13.6981 17.865C11.9862 18.4237 10.5194 19.6037 9.56749 21.25C9.53258 21.3069 9.50943 21.3702 9.49939 21.4363C9.48936 21.5023 9.49265 21.5696 9.50906 21.6343C9.52548 21.6991 9.55469 21.7598 9.59498 21.8131C9.63527 21.8663 9.68581 21.911 9.74363 21.9444C9.80144 21.9778 9.86536 21.9992 9.93162 22.0075C9.99787 22.0158 10.0651 22.0108 10.1294 21.9926C10.1936 21.9745 10.2536 21.9437 10.3058 21.902C10.358 21.8604 10.4012 21.8087 10.4331 21.75C11.6106 19.715 13.6919 18.5 16 18.5C18.3081 18.5 20.3894 19.715 21.5669 21.75C21.5987 21.8087 21.642 21.8604 21.6942 21.902C21.7463 21.9437 21.8063 21.9745 21.8706 21.9926C21.9349 22.0108 22.0021 22.0158 22.0684 22.0075C22.1346 21.9992 22.1985 21.9778 22.2563 21.9444C22.3142 21.911 22.3647 21.8663 22.405 21.8131C22.4453 21.7598 22.4745 21.6991 22.4909 21.6343C22.5073 21.5696 22.5106 21.5023 22.5006 21.4363C22.4905 21.3702 22.4674 21.3069 22.4325 21.25ZM12.5 14C12.5 13.3078 12.7053 12.6311 13.0898 12.0555C13.4744 11.4799 14.0211 11.0313 14.6606 10.7664C15.3001 10.5015 16.0039 10.4322 16.6828 10.5672C17.3617 10.7023 17.9854 11.0356 18.4749 11.5251C18.9643 12.0146 19.2977 12.6382 19.4327 13.3172C19.5678 13.9961 19.4985 14.6998 19.2336 15.3394C18.9687 15.9789 18.5201 16.5256 17.9445 16.9101C17.3689 17.2947 16.6922 17.5 16 17.5C15.072 17.499 14.1824 17.1299 13.5262 16.4738C12.87 15.8176 12.501 14.9279 12.5 14Z" fill="#1C1C1C"/>
<path d="M45.3068 8.81818V19H44.1136L38.5653 11.0057H38.4659V19H37.233V8.81818H38.4261L43.9943 16.8324H44.0938V8.81818H45.3068ZM50.8166 19.1591C50.0808 19.1591 49.4461 18.9967 48.9125 18.6719C48.3822 18.3438 47.9728 17.8864 47.6845 17.2997C47.3994 16.7098 47.2569 16.0237 47.2569 15.2415C47.2569 14.4593 47.3994 13.7699 47.6845 13.1733C47.9728 12.5734 48.3739 12.1061 48.8876 11.7713C49.4047 11.4332 50.0079 11.2642 50.6973 11.2642C51.095 11.2642 51.4877 11.3305 51.8755 11.4631C52.2633 11.5956 52.6163 11.8111 52.9345 12.1094C53.2527 12.4044 53.5062 12.7955 53.6951 13.2827C53.8841 13.7699 53.9785 14.3698 53.9785 15.0824V15.5795H48.0922V14.5653H52.7853C52.7853 14.1345 52.6992 13.75 52.5268 13.4119C52.3578 13.0739 52.1158 12.8071 51.801 12.6115C51.4894 12.416 51.1215 12.3182 50.6973 12.3182C50.2299 12.3182 49.8256 12.4342 49.4842 12.6662C49.1461 12.8949 48.8859 13.1932 48.7037 13.5611C48.5214 13.929 48.4302 14.3234 48.4302 14.7443V15.4205C48.4302 15.9972 48.5297 16.486 48.7285 16.8871C48.9307 17.2848 49.2108 17.5881 49.5687 17.7969C49.9267 18.0024 50.3426 18.1051 50.8166 18.1051C51.1248 18.1051 51.4032 18.062 51.6518 17.9759C51.9037 17.8864 52.1208 17.7538 52.3031 17.5781C52.4854 17.3991 52.6262 17.1771 52.7257 16.9119L53.8592 17.2301C53.7399 17.6146 53.5394 17.9527 53.2576 18.2443C52.9759 18.5327 52.6279 18.758 52.2136 18.9205C51.7993 19.0795 51.3336 19.1591 50.8166 19.1591ZM57.4934 19L55.1667 11.3636H56.3997L58.0502 17.2102H58.1298L59.7605 11.3636H61.0133L62.6241 17.1903H62.7037L64.3542 11.3636H65.5872L63.2605 19H62.1071L60.4366 13.1335H60.3173L58.6468 19H57.4934ZM75.8883 15.8778V11.3636H77.0616V19H75.8883V17.7074H75.8088C75.6298 18.0952 75.3514 18.425 74.9735 18.6967C74.5957 18.9652 74.1184 19.0994 73.5417 19.0994C73.0645 19.0994 72.6402 18.995 72.269 18.7862C71.8978 18.5741 71.6061 18.2559 71.394 17.8317C71.1819 17.4041 71.0758 16.8655 71.0758 16.2159V11.3636H72.2491V16.1364C72.2491 16.6932 72.4049 17.1373 72.7164 17.4688C73.0313 17.8002 73.4324 17.9659 73.9196 17.9659C74.2112 17.9659 74.5079 17.8913 74.8095 17.7422C75.1144 17.593 75.3696 17.3643 75.5751 17.0561C75.7839 16.7479 75.8883 16.3551 75.8883 15.8778ZM84.6197 13.0739L83.5657 13.3722C83.4994 13.1965 83.4016 13.0258 83.2724 12.8601C83.1464 12.6911 82.9741 12.5518 82.7553 12.4425C82.5366 12.3331 82.2565 12.2784 81.9151 12.2784C81.4478 12.2784 81.0584 12.3861 80.7468 12.6016C80.4386 12.8137 80.2844 13.0838 80.2844 13.4119C80.2844 13.7036 80.3905 13.9339 80.6026 14.103C80.8147 14.272 81.1462 14.4129 81.5969 14.5256L82.7305 14.804C83.4132 14.9697 83.922 15.2232 84.2567 15.5646C84.5915 15.9027 84.7589 16.3385 84.7589 16.8722C84.7589 17.3097 84.6329 17.7008 84.381 18.0455C84.1325 18.3902 83.7844 18.6619 83.337 18.8608C82.8896 19.0597 82.3692 19.1591 81.7759 19.1591C80.997 19.1591 80.3524 18.9901 79.842 18.652C79.3316 18.3139 79.0084 17.8201 78.8725 17.1705L79.9862 16.892C80.0922 17.303 80.2927 17.6113 80.5877 17.8168C80.886 18.0223 81.2754 18.125 81.756 18.125C82.3029 18.125 82.7371 18.009 83.0586 17.777C83.3834 17.5417 83.5458 17.2599 83.5458 16.9318C83.5458 16.6667 83.453 16.4446 83.2674 16.2656C83.0818 16.0833 82.7968 15.9474 82.4123 15.858L81.1396 15.5597C80.4402 15.3939 79.9265 15.1371 79.5984 14.7891C79.2736 14.4377 79.1112 13.9986 79.1112 13.4716C79.1112 13.0407 79.2321 12.6596 79.4741 12.3281C79.7193 11.9967 80.0524 11.7365 80.4734 11.5476C80.8976 11.3587 81.3782 11.2642 81.9151 11.2642C82.6708 11.2642 83.2641 11.4299 83.695 11.7614C84.1291 12.0928 84.4374 12.5303 84.6197 13.0739ZM89.7267 19.1591C88.9909 19.1591 88.3562 18.9967 87.8226 18.6719C87.2923 18.3438 86.883 17.8864 86.5946 17.2997C86.3096 16.7098 86.1671 16.0237 86.1671 15.2415C86.1671 14.4593 86.3096 13.7699 86.5946 13.1733C86.883 12.5734 87.284 12.1061 87.7978 11.7713C88.3148 11.4332 88.918 11.2642 89.6074 11.2642C90.0051 11.2642 90.3979 11.3305 90.7857 11.4631C91.1735 11.5956 91.5265 11.8111 91.8446 12.1094C92.1628 12.4044 92.4164 12.7955 92.6053 13.2827C92.7942 13.7699 92.8887 14.3698 92.8887 15.0824V15.5795H87.0023V14.5653H91.6955C91.6955 14.1345 91.6093 13.75 91.437 13.4119C91.2679 13.0739 91.026 12.8071 90.7111 12.6115C90.3996 12.416 90.0317 12.3182 89.6074 12.3182C89.1401 12.3182 88.7357 12.4342 88.3944 12.6662C88.0563 12.8949 87.7961 13.1932 87.6138 13.5611C87.4315 13.929 87.3404 14.3234 87.3404 14.7443V15.4205C87.3404 15.9972 87.4398 16.486 87.6387 16.8871C87.8408 17.2848 88.1209 17.5881 88.4789 17.7969C88.8368 18.0024 89.2528 18.1051 89.7267 18.1051C90.035 18.1051 90.3134 18.062 90.562 17.9759C90.8139 17.8864 91.031 17.7538 91.2132 17.5781C91.3955 17.3991 91.5364 17.1771 91.6358 16.9119L92.7694 17.2301C92.65 17.6146 92.4495 17.9527 92.1678 18.2443C91.8861 18.5327 91.5381 18.758 91.1238 18.9205C90.7095 19.0795 90.2438 19.1591 89.7267 19.1591ZM94.6735 19V11.3636H95.807V12.517H95.8865C96.0257 12.1392 96.2776 11.8326 96.6422 11.5973C97.0068 11.362 97.4178 11.2443 97.8752 11.2443C97.9614 11.2443 98.0691 11.246 98.1983 11.2493C98.3276 11.2526 98.4254 11.2576 98.4917 11.2642V12.4574C98.4519 12.4474 98.3607 12.4325 98.2182 12.4126C98.079 12.3894 97.9315 12.3778 97.7757 12.3778C97.4045 12.3778 97.0731 12.4557 96.7814 12.6115C96.4931 12.764 96.2644 12.9761 96.0953 13.2479C95.9296 13.5163 95.8468 13.8229 95.8468 14.1676V19H94.6735ZM103.82 19V11.3636H104.953V12.517H105.033C105.172 12.1392 105.424 11.8326 105.789 11.5973C106.153 11.362 106.564 11.2443 107.022 11.2443C107.108 11.2443 107.216 11.246 107.345 11.2493C107.474 11.2526 107.572 11.2576 107.638 11.2642V12.4574C107.598 12.4474 107.507 12.4325 107.365 12.4126C107.225 12.3894 107.078 12.3778 106.922 12.3778C106.551 12.3778 106.22 12.4557 105.928 12.6115C105.64 12.764 105.411 12.9761 105.242 13.2479C105.076 13.5163 104.993 13.8229 104.993 14.1676V19H103.82ZM111.998 19.1591C111.262 19.1591 110.628 18.9967 110.094 18.6719C109.564 18.3438 109.154 17.8864 108.866 17.2997C108.581 16.7098 108.439 16.0237 108.439 15.2415C108.439 14.4593 108.581 13.7699 108.866 13.1733C109.154 12.5734 109.556 12.1061 110.069 11.7713C110.586 11.4332 111.19 11.2642 111.879 11.2642C112.277 11.2642 112.669 11.3305 113.057 11.4631C113.445 11.5956 113.798 11.8111 114.116 12.1094C114.434 12.4044 114.688 12.7955 114.877 13.2827C115.066 13.7699 115.16 14.3698 115.16 15.0824V15.5795H109.274V14.5653H113.967C113.967 14.1345 113.881 13.75 113.708 13.4119C113.539 13.0739 113.297 12.8071 112.983 12.6115C112.671 12.416 112.303 12.3182 111.879 12.3182C111.412 12.3182 111.007 12.4342 110.666 12.6662C110.328 12.8949 110.068 13.1932 109.885 13.5611C109.703 13.929 109.612 14.3234 109.612 14.7443V15.4205C109.612 15.9972 109.711 16.486 109.91 16.8871C110.112 17.2848 110.392 17.5881 110.75 17.7969C111.108 18.0024 111.524 18.1051 111.998 18.1051C112.306 18.1051 112.585 18.062 112.833 17.9759C113.085 17.8864 113.302 17.7538 113.485 17.5781C113.667 17.3991 113.808 17.1771 113.907 16.9119L115.041 17.2301C114.922 17.6146 114.721 17.9527 114.439 18.2443C114.158 18.5327 113.81 18.758 113.395 18.9205C112.981 19.0795 112.515 19.1591 111.998 19.1591ZM120.027 22.0227C119.461 22.0227 118.973 21.9498 118.566 21.804C118.158 21.6615 117.818 21.4725 117.547 21.2372C117.278 21.0052 117.064 20.7566 116.905 20.4915L117.84 19.8352C117.946 19.9744 118.08 20.1335 118.243 20.3125C118.405 20.4948 118.627 20.6522 118.909 20.7848C119.194 20.9207 119.567 20.9886 120.027 20.9886C120.644 20.9886 121.153 20.8395 121.554 20.5412C121.955 20.2429 122.155 19.7756 122.155 19.1392V17.5881H122.056C121.97 17.7273 121.847 17.8996 121.688 18.1051C121.532 18.3073 121.307 18.4879 121.012 18.647C120.72 18.8028 120.326 18.8807 119.828 18.8807C119.212 18.8807 118.658 18.7348 118.168 18.4432C117.681 18.1515 117.295 17.7273 117.01 17.1705C116.728 16.6136 116.587 15.9375 116.587 15.142C116.587 14.3598 116.725 13.6787 117 13.0987C117.275 12.5154 117.658 12.0646 118.148 11.7464C118.639 11.425 119.205 11.2642 119.848 11.2642C120.346 11.2642 120.74 11.3471 121.032 11.5128C121.327 11.6752 121.552 11.8608 121.708 12.0696C121.867 12.2751 121.989 12.4441 122.076 12.5767H122.195V11.3636H123.328V19.2188C123.328 19.875 123.179 20.4086 122.881 20.8196C122.586 21.2339 122.188 21.5372 121.688 21.7294C121.191 21.925 120.637 22.0227 120.027 22.0227ZM119.988 17.8267C120.458 17.8267 120.856 17.719 121.181 17.5036C121.506 17.2881 121.752 16.9782 121.922 16.5739C122.091 16.1695 122.175 15.6856 122.175 15.1222C122.175 14.572 122.092 14.0864 121.926 13.6655C121.761 13.2446 121.516 12.9148 121.191 12.6761C120.866 12.4375 120.465 12.3182 119.988 12.3182C119.49 12.3182 119.076 12.4441 118.745 12.696C118.417 12.9479 118.17 13.286 118.004 13.7102C117.842 14.1345 117.76 14.6051 117.76 15.1222C117.76 15.6525 117.843 16.1214 118.009 16.5291C118.178 16.9335 118.426 17.2517 118.755 17.4837C119.086 17.7124 119.497 17.8267 119.988 17.8267ZM125.476 19V11.3636H126.65V19H125.476ZM126.073 10.0909C125.844 10.0909 125.647 10.013 125.481 9.85724C125.319 9.70147 125.238 9.5142 125.238 9.29545C125.238 9.0767 125.319 8.88944 125.481 8.73366C125.647 8.57789 125.844 8.5 126.073 8.5C126.301 8.5 126.497 8.57789 126.659 8.73366C126.825 8.88944 126.908 9.0767 126.908 9.29545C126.908 9.5142 126.825 9.70147 126.659 9.85724C126.497 10.013 126.301 10.0909 126.073 10.0909ZM134.208 13.0739L133.154 13.3722C133.087 13.1965 132.99 13.0258 132.86 12.8601C132.734 12.6911 132.562 12.5518 132.343 12.4425C132.124 12.3331 131.844 12.2784 131.503 12.2784C131.036 12.2784 130.646 12.3861 130.335 12.6016C130.026 12.8137 129.872 13.0838 129.872 13.4119C129.872 13.7036 129.978 13.9339 130.191 14.103C130.403 14.272 130.734 14.4129 131.185 14.5256L132.318 14.804C133.001 14.9697 133.51 15.2232 133.845 15.5646C134.179 15.9027 134.347 16.3385 134.347 16.8722C134.347 17.3097 134.221 17.7008 133.969 18.0455C133.72 18.3902 133.372 18.6619 132.925 18.8608C132.477 19.0597 131.957 19.1591 131.364 19.1591C130.585 19.1591 129.94 18.9901 129.43 18.652C128.919 18.3139 128.596 17.8201 128.46 17.1705L129.574 16.892C129.68 17.303 129.881 17.6113 130.176 17.8168C130.474 18.0223 130.863 18.125 131.344 18.125C131.891 18.125 132.325 18.009 132.646 17.777C132.971 17.5417 133.134 17.2599 133.134 16.9318C133.134 16.6667 133.041 16.4446 132.855 16.2656C132.67 16.0833 132.385 15.9474 132 15.858L130.727 15.5597C130.028 15.3939 129.514 15.1371 129.186 14.7891C128.861 14.4377 128.699 13.9986 128.699 13.4716C128.699 13.0407 128.82 12.6596 129.062 12.3281C129.307 11.9967 129.64 11.7365 130.061 11.5476C130.485 11.3587 130.966 11.2642 131.503 11.2642C132.259 11.2642 132.852 11.4299 133.283 11.7614C133.717 12.0928 134.025 12.5303 134.208 13.0739ZM139.434 11.3636V12.358H135.477V11.3636H139.434ZM136.63 9.53409H137.803V16.8125C137.803 17.1439 137.851 17.3925 137.947 17.5582C138.047 17.7206 138.173 17.83 138.325 17.8864C138.481 17.9394 138.645 17.9659 138.817 17.9659C138.947 17.9659 139.053 17.9593 139.136 17.946C139.219 17.9295 139.285 17.9162 139.335 17.9062L139.573 18.9602C139.494 18.9901 139.383 19.0199 139.24 19.0497C139.098 19.0829 138.917 19.0994 138.698 19.0994C138.367 19.0994 138.042 19.0282 137.724 18.8857C137.409 18.7431 137.147 18.526 136.938 18.2344C136.733 17.9427 136.63 17.5748 136.63 17.1307V9.53409ZM144.319 19.1591C143.583 19.1591 142.948 18.9967 142.414 18.6719C141.884 18.3438 141.475 17.8864 141.186 17.2997C140.901 16.7098 140.759 16.0237 140.759 15.2415C140.759 14.4593 140.901 13.7699 141.186 13.1733C141.475 12.5734 141.876 12.1061 142.39 11.7713C142.907 11.4332 143.51 11.2642 144.199 11.2642C144.597 11.2642 144.99 11.3305 145.377 11.4631C145.765 11.5956 146.118 11.8111 146.436 12.1094C146.755 12.4044 147.008 12.7955 147.197 13.2827C147.386 13.7699 147.48 14.3698 147.48 15.0824V15.5795H141.594V14.5653H146.287C146.287 14.1345 146.201 13.75 146.029 13.4119C145.86 13.0739 145.618 12.8071 145.303 12.6115C144.991 12.416 144.623 12.3182 144.199 12.3182C143.732 12.3182 143.328 12.4342 142.986 12.6662C142.648 12.8949 142.388 13.1932 142.206 13.5611C142.023 13.929 141.932 14.3234 141.932 14.7443V15.4205C141.932 15.9972 142.032 16.486 142.23 16.8871C142.433 17.2848 142.713 17.5881 143.071 17.7969C143.429 18.0024 143.845 18.1051 144.319 18.1051C144.627 18.1051 144.905 18.062 145.154 17.9759C145.406 17.8864 145.623 17.7538 145.805 17.5781C145.987 17.3991 146.128 17.1771 146.228 16.9119L147.361 17.2301C147.242 17.6146 147.041 17.9527 146.76 18.2443C146.478 18.5327 146.13 18.758 145.716 18.9205C145.301 19.0795 144.836 19.1591 144.319 19.1591ZM149.265 19V11.3636H150.399V12.517H150.478C150.618 12.1392 150.869 11.8326 151.234 11.5973C151.599 11.362 152.01 11.2443 152.467 11.2443C152.553 11.2443 152.661 11.246 152.79 11.2493C152.919 11.2526 153.017 11.2576 153.083 11.2642V12.4574C153.044 12.4474 152.953 12.4325 152.81 12.4126C152.671 12.3894 152.523 12.3778 152.368 12.3778C151.996 12.3778 151.665 12.4557 151.373 12.6115C151.085 12.764 150.856 12.9761 150.687 13.2479C150.521 13.5163 150.439 13.8229 150.439 14.1676V19H149.265ZM157.444 19.1591C156.708 19.1591 156.073 18.9967 155.539 18.6719C155.009 18.3438 154.6 17.8864 154.311 17.2997C154.026 16.7098 153.884 16.0237 153.884 15.2415C153.884 14.4593 154.026 13.7699 154.311 13.1733C154.6 12.5734 155.001 12.1061 155.515 11.7713C156.032 11.4332 156.635 11.2642 157.324 11.2642C157.722 11.2642 158.115 11.3305 158.502 11.4631C158.89 11.5956 159.243 11.8111 159.561 12.1094C159.88 12.4044 160.133 12.7955 160.322 13.2827C160.511 13.7699 160.605 14.3698 160.605 15.0824V15.5795H154.719V14.5653H159.412C159.412 14.1345 159.326 13.75 159.154 13.4119C158.985 13.0739 158.743 12.8071 158.428 12.6115C158.116 12.416 157.748 12.3182 157.324 12.3182C156.857 12.3182 156.453 12.4342 156.111 12.6662C155.773 12.8949 155.513 13.1932 155.331 13.5611C155.148 13.929 155.057 14.3234 155.057 14.7443V15.4205C155.057 15.9972 155.157 16.486 155.355 16.8871C155.558 17.2848 155.838 17.5881 156.196 17.7969C156.554 18.0024 156.97 18.1051 157.444 18.1051C157.752 18.1051 158.03 18.062 158.279 17.9759C158.531 17.8864 158.748 17.7538 158.93 17.5781C159.112 17.3991 159.253 17.1771 159.353 16.9119L160.486 17.2301C160.367 17.6146 160.166 17.9527 159.885 18.2443C159.603 18.5327 159.255 18.758 158.841 18.9205C158.426 19.0795 157.961 19.1591 157.444 19.1591ZM165.274 19.1591C164.637 19.1591 164.076 18.9983 163.588 18.6768C163.101 18.352 162.72 17.8946 162.445 17.3047C162.17 16.7114 162.032 16.0104 162.032 15.2017C162.032 14.3996 162.17 13.7036 162.445 13.1136C162.72 12.5237 163.103 12.0679 163.593 11.7464C164.084 11.425 164.651 11.2642 165.294 11.2642C165.791 11.2642 166.184 11.3471 166.472 11.5128C166.764 11.6752 166.986 11.8608 167.138 12.0696C167.294 12.2751 167.415 12.4441 167.501 12.5767H167.6V8.81818H168.774V19H167.64V17.8267H167.501C167.415 17.9659 167.292 18.1416 167.133 18.3537C166.974 18.5625 166.747 18.7498 166.452 18.9155C166.157 19.0779 165.764 19.1591 165.274 19.1591ZM165.433 18.1051C165.904 18.1051 166.301 17.9825 166.626 17.7372C166.951 17.4886 167.198 17.1456 167.367 16.7081C167.536 16.2673 167.62 15.7585 167.62 15.1818C167.62 14.6117 167.538 14.1129 167.372 13.6854C167.206 13.2545 166.961 12.9197 166.636 12.6811C166.311 12.4392 165.91 12.3182 165.433 12.3182C164.936 12.3182 164.521 12.4458 164.19 12.701C163.862 12.9529 163.615 13.2959 163.449 13.7301C163.287 14.161 163.206 14.6449 163.206 15.1818C163.206 15.7254 163.288 16.2192 163.454 16.6634C163.623 17.1042 163.872 17.4555 164.2 17.7173C164.531 17.9759 164.942 18.1051 165.433 18.1051Z" fill="#1C1C1C"/>
<path d="M39.6307 37.1193C39.1307 37.1193 38.6804 37.0199 38.2798 36.821C37.8793 36.6222 37.5582 36.3494 37.3168 36.0028C37.0753 35.6562 36.9432 35.2614 36.9205 34.8182H37.9432C37.983 35.2131 38.1619 35.5398 38.4801 35.7983C38.8011 36.054 39.1847 36.1818 39.6307 36.1818C39.9886 36.1818 40.3068 36.098 40.5852 35.9304C40.8665 35.7628 41.0866 35.5327 41.2457 35.2401C41.4077 34.9446 41.4886 34.6108 41.4886 34.2386C41.4886 33.858 41.4048 33.5185 41.2372 33.2202C41.0724 32.919 40.8452 32.6818 40.5554 32.5085C40.2656 32.3352 39.9347 32.2472 39.5625 32.2443C39.2955 32.2415 39.0213 32.2827 38.7401 32.3679C38.4588 32.4503 38.2273 32.5568 38.0455 32.6875L37.0568 32.5682L37.5852 28.2727H42.1193V29.2102H38.4716L38.1648 31.7841H38.2159C38.3949 31.642 38.6193 31.5241 38.8892 31.4304C39.1591 31.3366 39.4403 31.2898 39.733 31.2898C40.267 31.2898 40.7429 31.4176 41.1605 31.6733C41.581 31.9261 41.9105 32.2727 42.1491 32.7131C42.3906 33.1534 42.5114 33.6562 42.5114 34.2216C42.5114 34.7784 42.3864 35.2756 42.1364 35.7131C41.8892 36.1477 41.5483 36.4915 41.1136 36.7443C40.679 36.9943 40.1847 37.1193 39.6307 37.1193ZM43.9996 30.9489C43.9996 30.4091 44.1175 29.929 44.3533 29.5085C44.592 29.0881 44.9173 28.7571 45.3292 28.5156C45.744 28.2741 46.2156 28.1534 46.744 28.1534C47.2781 28.1534 47.7525 28.2784 48.1673 28.5284C48.582 28.7756 48.9073 29.1165 49.1431 29.5511C49.3789 29.983 49.494 30.4773 49.4883 31.0341C49.4826 31.3068 49.4414 31.5895 49.3647 31.8821C49.288 32.1747 49.1587 32.5 48.9769 32.858C48.7951 33.2159 48.5451 33.6307 48.2269 34.1023L46.2667 37H45.1076L47.4087 33.642C47.3065 33.6761 47.1999 33.7045 47.0891 33.7273C46.9812 33.75 46.8718 33.7614 46.761 33.7614C46.2326 33.7614 45.7596 33.6392 45.342 33.3949C44.9272 33.1506 44.5991 32.8168 44.3576 32.3935C44.119 31.9702 43.9996 31.4886 43.9996 30.9489ZM45.0053 30.9489C45.0053 31.3182 45.0792 31.6435 45.2269 31.9247C45.3746 32.206 45.5792 32.4261 45.8406 32.5852C46.1019 32.7443 46.4031 32.8239 46.744 32.8239C47.0849 32.8239 47.386 32.7457 47.6474 32.5895C47.9087 32.4304 48.1133 32.2116 48.261 31.9332C48.4087 31.652 48.4826 31.3295 48.4826 30.9659C48.4826 30.5966 48.4087 30.2699 48.261 29.9858C48.1133 29.7017 47.9087 29.4787 47.6474 29.3168C47.386 29.1548 47.0849 29.0739 46.744 29.0739C46.4031 29.0739 46.1019 29.1548 45.8406 29.3168C45.5792 29.4759 45.3746 29.6974 45.2269 29.9815C45.0792 30.2628 45.0053 30.5852 45.0053 30.9489ZM54.4869 37V30.4545H55.4585V31.4773H55.5437C55.68 31.1278 55.9002 30.8565 56.2042 30.6634C56.5082 30.4673 56.8732 30.3693 57.2994 30.3693C57.7312 30.3693 58.0906 30.4673 58.3775 30.6634C58.6673 30.8565 58.8931 31.1278 59.055 31.4773H59.1232C59.2908 31.1392 59.5423 30.8707 59.8775 30.6719C60.2127 30.4702 60.6147 30.3693 61.0835 30.3693C61.6687 30.3693 62.1474 30.5526 62.5195 30.919C62.8917 31.2827 63.0778 31.8494 63.0778 32.6193V37H62.0721V32.6193C62.0721 32.1364 61.94 31.7912 61.6758 31.5838C61.4116 31.3764 61.1005 31.2727 60.7425 31.2727C60.2823 31.2727 59.9258 31.4119 59.6729 31.6903C59.4201 31.9659 59.2937 32.3153 59.2937 32.7386V37H58.271V32.517C58.271 32.1449 58.1502 31.8452 57.9087 31.6179C57.6673 31.3878 57.3562 31.2727 56.9755 31.2727C56.7141 31.2727 56.4698 31.3423 56.2425 31.4815C56.0181 31.6207 55.8363 31.8139 55.6971 32.0611C55.5607 32.3054 55.4925 32.5881 55.4925 32.9091V37H54.4869ZM64.9165 37V30.4545H65.9222V37H64.9165ZM65.4279 29.3636C65.2319 29.3636 65.0629 29.2969 64.9208 29.1634C64.7816 29.0298 64.712 28.8693 64.712 28.6818C64.712 28.4943 64.7816 28.3338 64.9208 28.2003C65.0629 28.0668 65.2319 28 65.4279 28C65.6239 28 65.7915 28.0668 65.9308 28.2003C66.0728 28.3338 66.1438 28.4943 66.1438 28.6818C66.1438 28.8693 66.0728 29.0298 65.9308 29.1634C65.7915 29.2969 65.6239 29.3636 65.4279 29.3636ZM68.7699 33.0625V37H67.7642V30.4545H68.7358V31.4773H68.821C68.9744 31.1449 69.2074 30.8778 69.5199 30.6761C69.8324 30.4716 70.2358 30.3693 70.7301 30.3693C71.1733 30.3693 71.5611 30.4602 71.8935 30.642C72.2259 30.821 72.4844 31.0938 72.669 31.4602C72.8537 31.8239 72.946 32.2841 72.946 32.8409V37H71.9403V32.9091C71.9403 32.3949 71.8068 31.9943 71.5398 31.7074C71.2727 31.4176 70.9063 31.2727 70.4403 31.2727C70.1193 31.2727 69.8324 31.3423 69.5795 31.4815C69.3295 31.6207 69.1321 31.8239 68.9872 32.0909C68.8423 32.358 68.7699 32.6818 68.7699 33.0625ZM78.9087 34.3239V30.4545H79.9144V37H78.9087V35.892H78.8406C78.6871 36.2244 78.4485 36.5071 78.1246 36.7401C77.8008 36.9702 77.3917 37.0852 76.8974 37.0852C76.4883 37.0852 76.1246 36.9957 75.8065 36.8168C75.4883 36.6349 75.2383 36.3622 75.0565 35.9986C74.8746 35.6321 74.7837 35.1705 74.7837 34.6136V30.4545H75.7894V34.5455C75.7894 35.0227 75.9229 35.4034 76.19 35.6875C76.4599 35.9716 76.8036 36.1136 77.2212 36.1136C77.4712 36.1136 77.7255 36.0497 77.984 35.9219C78.2454 35.794 78.4641 35.598 78.6403 35.3338C78.8192 35.0696 78.9087 34.733 78.9087 34.3239ZM84.603 30.4545V31.3068H81.2109V30.4545H84.603ZM82.1996 28.8864H83.2053V35.125C83.2053 35.4091 83.2464 35.6222 83.3288 35.7642C83.4141 35.9034 83.522 35.9972 83.6527 36.0455C83.7862 36.0909 83.9268 36.1136 84.0746 36.1136C84.1854 36.1136 84.2763 36.108 84.3473 36.0966C84.4183 36.0824 84.4751 36.071 84.5178 36.0625L84.7223 36.9659C84.6541 36.9915 84.5589 37.017 84.4368 37.0426C84.3146 37.071 84.1598 37.0852 83.9723 37.0852C83.6882 37.0852 83.4098 37.0241 83.1371 36.902C82.8672 36.7798 82.6428 36.5938 82.4638 36.3438C82.2876 36.0938 82.1996 35.7784 82.1996 35.3977V28.8864ZM88.7898 37.1364C88.1591 37.1364 87.6151 36.9972 87.1577 36.7188C86.7031 36.4375 86.3523 36.0455 86.1051 35.5426C85.8608 35.0369 85.7386 34.4489 85.7386 33.7784C85.7386 33.108 85.8608 32.517 86.1051 32.0057C86.3523 31.4915 86.696 31.0909 87.1364 30.804C87.5795 30.5142 88.0966 30.3693 88.6875 30.3693C89.0284 30.3693 89.3651 30.4261 89.6974 30.5398C90.0298 30.6534 90.3324 30.8381 90.6051 31.0938C90.8778 31.3466 91.0952 31.6818 91.2571 32.0994C91.419 32.517 91.5 33.0312 91.5 33.642V34.0682H86.4545V33.1989H90.4773C90.4773 32.8295 90.4034 32.5 90.2557 32.2102C90.1108 31.9205 89.9034 31.6918 89.6335 31.5241C89.3665 31.3565 89.0511 31.2727 88.6875 31.2727C88.2869 31.2727 87.9403 31.3722 87.6477 31.571C87.358 31.767 87.1349 32.0227 86.9787 32.3381C86.8224 32.6534 86.7443 32.9915 86.7443 33.3523V33.9318C86.7443 34.4261 86.8295 34.8452 87 35.1889C87.1733 35.5298 87.4134 35.7898 87.7202 35.9688C88.027 36.1449 88.3835 36.233 88.7898 36.233C89.054 36.233 89.2926 36.196 89.5057 36.1222C89.7216 36.0455 89.9077 35.9318 90.0639 35.7812C90.2202 35.6278 90.3409 35.4375 90.4261 35.2102L91.3977 35.483C91.2955 35.8125 91.1236 36.1023 90.8821 36.3523C90.6406 36.5994 90.3423 36.7926 89.9872 36.9318C89.6321 37.0682 89.233 37.1364 88.7898 37.1364ZM97.6662 31.9205L96.7628 32.1761C96.706 32.0256 96.6222 31.8793 96.5114 31.7372C96.4034 31.5923 96.2557 31.473 96.0682 31.3793C95.8807 31.2855 95.6406 31.2386 95.348 31.2386C94.9474 31.2386 94.6136 31.331 94.3466 31.5156C94.0824 31.6974 93.9503 31.929 93.9503 32.2102C93.9503 32.4602 94.0412 32.6577 94.223 32.8026C94.4048 32.9474 94.6889 33.0682 95.0753 33.1648L96.0469 33.4034C96.6321 33.5455 97.0682 33.7628 97.3551 34.0554C97.642 34.3452 97.7855 34.7187 97.7855 35.1761C97.7855 35.5511 97.6776 35.8864 97.4616 36.1818C97.2486 36.4773 96.9503 36.7102 96.5668 36.8807C96.1832 37.0511 95.7372 37.1364 95.2287 37.1364C94.5611 37.1364 94.0085 36.9915 93.571 36.7017C93.1335 36.4119 92.8565 35.9886 92.7401 35.4318L93.6946 35.1932C93.7855 35.5455 93.9574 35.8097 94.2102 35.9858C94.4659 36.1619 94.7997 36.25 95.2116 36.25C95.6804 36.25 96.0526 36.1506 96.3281 35.9517C96.6065 35.75 96.7457 35.5085 96.7457 35.2273C96.7457 35 96.6662 34.8097 96.5071 34.6562C96.348 34.5 96.1037 34.3835 95.7741 34.3068L94.6832 34.0511C94.0838 33.9091 93.6435 33.6889 93.3622 33.3906C93.0838 33.0895 92.9446 32.7131 92.9446 32.2614C92.9446 31.892 93.0483 31.5653 93.2557 31.2812C93.4659 30.9972 93.7514 30.7741 94.1122 30.6122C94.4759 30.4503 94.8878 30.3693 95.348 30.3693C95.9957 30.3693 96.5043 30.5114 96.8736 30.7955C97.2457 31.0795 97.5099 31.4545 97.6662 31.9205ZM105.146 37.1364C104.6 37.1364 104.119 36.9986 103.701 36.723C103.284 36.4446 102.957 36.0526 102.721 35.5469C102.485 35.0384 102.368 34.4375 102.368 33.7443C102.368 33.0568 102.485 32.4602 102.721 31.9545C102.957 31.4489 103.285 31.0582 103.706 30.7827C104.126 30.5071 104.612 30.3693 105.163 30.3693C105.589 30.3693 105.926 30.4403 106.173 30.5824C106.423 30.7216 106.613 30.8807 106.744 31.0597C106.877 31.2358 106.981 31.3807 107.055 31.4943H107.14V30.4545H108.146V37H107.174V35.9943H107.055C106.981 36.1136 106.876 36.2642 106.74 36.446C106.603 36.625 106.409 36.7855 106.156 36.9276C105.903 37.0668 105.566 37.1364 105.146 37.1364ZM105.282 36.233C105.686 36.233 106.027 36.1278 106.305 35.9176C106.583 35.7045 106.795 35.4105 106.94 35.0355C107.085 34.6577 107.157 34.2216 107.157 33.7273C107.157 33.2386 107.086 32.8111 106.944 32.4446C106.802 32.0753 106.592 31.7884 106.314 31.5838C106.035 31.3764 105.691 31.2727 105.282 31.2727C104.856 31.2727 104.501 31.3821 104.217 31.6009C103.936 31.8168 103.724 32.1108 103.582 32.483C103.443 32.8523 103.373 33.267 103.373 33.7273C103.373 34.1932 103.444 34.6165 103.586 34.9972C103.731 35.375 103.944 35.6761 104.225 35.9006C104.51 36.1222 104.862 36.233 105.282 36.233ZM112.77 39.5909C112.284 39.5909 111.866 39.5284 111.517 39.4034C111.167 39.2812 110.876 39.1193 110.643 38.9176C110.413 38.7188 110.23 38.5057 110.093 38.2784L110.895 37.7159C110.985 37.8352 111.1 37.9716 111.24 38.125C111.379 38.2812 111.569 38.4162 111.811 38.5298C112.055 38.6463 112.375 38.7045 112.77 38.7045C113.298 38.7045 113.734 38.5767 114.078 38.321C114.422 38.0653 114.593 37.6648 114.593 37.1193V35.7898H114.508C114.434 35.9091 114.329 36.0568 114.193 36.233C114.059 36.4062 113.866 36.5611 113.613 36.6974C113.363 36.831 113.025 36.8977 112.599 36.8977C112.071 36.8977 111.596 36.7727 111.176 36.5227C110.758 36.2727 110.427 35.9091 110.183 35.4318C109.941 34.9545 109.821 34.375 109.821 33.6932C109.821 33.0227 109.939 32.4389 110.174 31.9418C110.41 31.4418 110.738 31.0554 111.159 30.7827C111.579 30.5071 112.065 30.3693 112.616 30.3693C113.042 30.3693 113.38 30.4403 113.63 30.5824C113.883 30.7216 114.076 30.8807 114.21 31.0597C114.346 31.2358 114.451 31.3807 114.525 31.4943H114.627V30.4545H115.599V37.1875C115.599 37.75 115.471 38.2074 115.216 38.5597C114.963 38.9148 114.622 39.1747 114.193 39.3395C113.767 39.5071 113.292 39.5909 112.77 39.5909ZM112.735 35.9943C113.139 35.9943 113.48 35.902 113.758 35.7173C114.037 35.5327 114.248 35.267 114.393 34.9205C114.538 34.5739 114.61 34.1591 114.61 33.6761C114.61 33.2045 114.539 32.7884 114.397 32.4276C114.255 32.0668 114.045 31.7841 113.767 31.5795C113.488 31.375 113.145 31.2727 112.735 31.2727C112.309 31.2727 111.954 31.3807 111.67 31.5966C111.389 31.8125 111.177 32.1023 111.035 32.4659C110.896 32.8295 110.826 33.233 110.826 33.6761C110.826 34.1307 110.897 34.5327 111.039 34.8821C111.184 35.2287 111.397 35.5014 111.679 35.7003C111.963 35.8963 112.315 35.9943 112.735 35.9943ZM120.099 37.1364C119.508 37.1364 118.99 36.9957 118.544 36.7145C118.1 36.4332 117.754 36.0398 117.504 35.5341C117.257 35.0284 117.133 34.4375 117.133 33.7614C117.133 33.0795 117.257 32.4844 117.504 31.9759C117.754 31.4673 118.1 31.0724 118.544 30.7912C118.99 30.5099 119.508 30.3693 120.099 30.3693C120.69 30.3693 121.207 30.5099 121.65 30.7912C122.096 31.0724 122.443 31.4673 122.69 31.9759C122.94 32.4844 123.065 33.0795 123.065 33.7614C123.065 34.4375 122.94 35.0284 122.69 35.5341C122.443 36.0398 122.096 36.4332 121.65 36.7145C121.207 36.9957 120.69 37.1364 120.099 37.1364ZM120.099 36.233C120.548 36.233 120.917 36.1179 121.207 35.8878C121.497 35.6577 121.711 35.3551 121.85 34.9801C121.99 34.6051 122.059 34.1989 122.059 33.7614C122.059 33.3239 121.99 32.9162 121.85 32.5384C121.711 32.1605 121.497 31.8551 121.207 31.6222C120.917 31.3892 120.548 31.2727 120.099 31.2727C119.65 31.2727 119.281 31.3892 118.991 31.6222C118.701 31.8551 118.487 32.1605 118.348 32.5384C118.208 32.9162 118.139 33.3239 118.139 33.7614C118.139 34.1989 118.208 34.6051 118.348 34.9801C118.487 35.3551 118.701 35.6577 118.991 35.8878C119.281 36.1179 119.65 36.233 120.099 36.233Z" fill="#1C1C1C" fill-opacity="0.4"/>
</svg>
